# xmcd
#
# Track frame offsets: 
#        150
#        17122
#        28147
#        44052
#        59070
#        72575
#        89745
#        105697
#
# Disc length: 1643 seconds
#
# Revision: 0
# Processed by: cddbd v1.5.2PL0 Copyright (c) Steve Scherf et al.
# Submitted via: ExactAudioCopy v1.0b3
#
DISCID=7c066908
DTITLE=Todd Bolton - Dangerous
DYEAR=1998
DGENRE=Country
TTITLE0=Dangerous
TTITLE1=Can't Bounce Back
TTITLE2=No One Loves Here Anymore
TTITLE3=One Step
TTITLE4=Doublewide Single Woman
TTITLE5=Swing Country Cowboy
TTITLE6=It Must Be Love
TTITLE7=Music in Me
EXTD=
EXTT0=
EXTT1=
EXTT2=
EXTT3=
EXTT4=
EXTT5=
EXTT6=
EXTT7=
PLAYORDER=
